<?xml version="1.0" encoding="UTF-8"?>
<svg width="221px" height="150px" viewBox="0 0 221 150" version="1.1" xmlns="http://www.w3.org/2000/svg" xmlns:xlink="http://www.w3.org/1999/xlink">
    <title>1612832935019</title>
    <g id="Page-1" stroke="none" stroke-width="1" fill="none" fill-rule="evenodd">
        <g id="1612832935019" transform="translate(0.574632, 1.000000)" fill-rule="nonzero" stroke-width="0.09375">
            <path d="M71.2086765,0 L218.936618,0 C218.936618,49.3351471 218.936618,98.6648529 218.936618,148 C194.277206,148 169.623235,148 144.963824,148 C144.931176,147.227353 144.898529,146.454706 144.871324,145.6875 C168.877794,145.6875 192.884265,145.6875 216.896176,145.6875 C216.896176,97.8486765 216.896176,50.0152941 216.896176,2.17647059 C169.057353,2.17647059 121.223971,2.17647059 73.3851471,2.17647059 C73.3851471,12.8792647 73.3851471,23.5766176 73.3851471,34.2794118 C72.6614706,34.2794118 71.9323529,34.2794118 71.2086765,34.2794118 C71.2086765,22.8529412 71.2086765,11.4264706 71.2086765,0 Z" id="Path" stroke="#040707" fill="#040707"></path>
            <path d="M218.936618,0 L219.480735,0 L219.480735,148 L218.936618,148 C218.936618,98.6648529 218.936618,49.3351471 218.936618,0 Z" id="Path" stroke="#020303" fill="#020303" opacity="0.5"></path>
            <path d="M1.93309421e-15,40.7652941 C3.54764706,41.0155882 7.10617647,41.0101471 10.6538235,40.7598529 C9.70161765,41.2876471 8.41205882,41.4726471 7.82441176,42.4955882 C7.39455882,43.5892647 7.88970588,44.7591176 8.2325,45.8092647 C10.3491176,51.43 12.4548529,57.0507353 14.5170588,62.6932353 C16.5847059,56.9745588 18.7557353,51.2885294 20.8777941,45.5916176 C21.2423529,44.4761765 21.7211765,43.2247059 21.2532353,42.0711765 C20.5458824,41.3202941 19.3977941,41.2495588 18.5054412,40.8142647 C21.0029412,40.9611765 23.5113235,40.9775 26.0088235,40.7870588 C24.7519118,41.3420588 23.2229412,41.6848529 22.4720588,42.9580882 C21.3783824,44.7808824 20.8614706,46.8702941 20.0670588,48.8236765 C17.6457353,55.1572059 15.4311765,61.5669118 12.8847059,67.8460294 C12.3242647,66.8829412 11.8454412,65.8708824 11.47,64.8261765 C9.03779412,58.2369118 6.57838235,51.6639706 4.15161765,45.0801471 C3.68367647,43.9701471 3.33,42.735 2.46485294,41.8589706 C1.69764706,41.3801471 0.827058824,41.1135294 1.93309421e-15,40.7652941 Z" id="Path" stroke="#000000" fill="#000000"></path>
            <path d="M29.2952941,40.7816176 C32.745,40.9938235 36.2001471,41.0047059 39.6498529,40.7816176 C38.8227941,41.1407353 37.9358824,41.4019118 37.1632353,41.8807353 C36.2545588,42.6805882 36.2763235,43.9973529 36.2491176,45.1073529 C36.26,51.1144118 36.2654412,57.1214706 36.2436765,63.1285294 C36.2763235,64.2439706 36.2110294,65.5607353 37.1088235,66.3986765 C37.7835294,66.8557353 38.6105882,67.0135294 39.3723529,67.3019118 L39.3941176,67.4977941 C36.0314706,67.3073529 32.6633824,67.3345588 29.3007353,67.4869118 C30.5522059,66.9917647 32.5273529,66.9808824 32.6960294,65.2614706 C33.0551471,62.0294118 32.7558824,58.7592647 32.8483824,55.5108824 C32.745,51.3483824 33.0660294,47.1641176 32.6960294,43.0179412 C32.5327941,41.2985294 30.5413235,41.2985294 29.2952941,40.7816176 Z" id="Path" stroke="#000000" fill="#000000"></path>
            <path d="M46.7288235,44.8461765 C49.4167647,41.3583824 54.3247059,40.0525 58.4817647,41.2767647 C60.2338235,41.8861765 61.6811765,43.0941176 63.2591176,44.0354412 C63.6127941,43.2736765 63.9719118,42.5064706 64.3310294,41.7447059 C64.2276471,44.4489706 64.2820588,47.1586765 64.3147059,49.8629412 C63.5475,47.7354412 63.2210294,45.3086765 61.5886765,43.6110294 C58.7157353,40.5857353 53.0732353,40.2266176 50.3472059,43.6327941 C47.4252941,47.1858824 46.8322059,52.0883824 47.2511765,56.5338235 C47.6864706,60.2664706 49.025,64.4507353 52.5236765,66.3823529 C55.3041176,67.5685294 59.4502941,67.3780882 61.235,64.6085294 C61.4472059,64.8425 61.6648529,65.0764706 61.8825,65.3104412 C59.6842647,66.6054412 57.2520588,67.7426471 54.6239706,67.4052941 C50.4669118,67.3345588 46.6744118,64.5377941 45.0910294,60.7398529 C42.8982353,55.6632353 43.2791176,49.2807353 46.7288235,44.8461765 Z" id="Path" stroke="#000000" fill="#000000"></path>
            <path d="M69.2063235,40.8033824 C76.0295588,40.9176471 82.8527941,40.9883824 89.6760294,40.8033824 C89.4148529,43.3226471 89.4638235,45.8636765 89.2679412,48.3938235 C88.7945588,46.1411765 89.0883824,43.1648529 86.8248529,41.7936765 C85.3394118,41.1407353 83.2336765,40.7272059 81.9876471,42.0548529 C81.2095588,42.8764706 81.3292647,44.1225 81.2639706,45.1672059 C81.2802941,51.1470588 81.2802941,57.1323529 81.2639706,63.1176471 C81.3183824,64.2657353 81.215,65.7185294 82.2651471,66.4857353 C83.0595588,66.9373529 83.9519118,67.1713235 84.8007353,67.4977941 C81.3510294,67.3345588 77.8958824,67.3182353 74.4516176,67.4814706 C75.3330882,67.1658824 76.2472059,66.9319118 77.0960294,66.5238235 C77.9611765,65.6314706 77.8142647,64.2820588 77.8795588,63.1394118 C77.8469118,56.9527941 77.8741176,50.7607353 77.8686765,44.5686765 C77.8577941,43.3389706 77.7163235,41.6957353 76.3125,41.2604412 C74.3319118,40.9883824 71.7419118,41.2930882 70.7080882,43.2682353 C69.9789706,44.9060294 69.8864706,46.7233824 69.4294118,48.4373529 C69.4076471,45.8908824 69.5436765,43.3389706 69.2063235,40.8033824 Z" id="Path" stroke="#000000" fill="#000000"></path>
            <path d="M102.772941,41.2223529 C106.772206,40.1885294 111.408088,41.1298529 114.210294,44.3020588 C118.759118,49.4983824 118.900588,57.9594118 114.710882,63.4060294 C110.668088,68.7002941 101.690147,68.8254412 97.4569118,63.6998529 C94.0289706,59.5863235 93.3814706,53.5847059 95.1552941,48.6169118 C96.3469118,45.1508824 99.1545588,42.1364706 102.772941,41.2223529 M104.187647,41.3801471 C101.461618,41.8861765 99.5408824,44.2748529 98.6920588,46.7886765 C97.3970588,50.5430882 97.3589706,54.6402941 97.9411765,58.5361765 C98.4689706,61.5560294 99.7095588,64.8751471 102.609706,66.3497059 C105.433676,67.6447059 109.231618,67.2529412 111.315588,64.7935294 C113.633529,62.1001471 114.204853,58.3892647 114.324559,54.9504412 C114.395294,51.0980882 113.981765,46.9083824 111.571324,43.7470588 C109.868235,41.5107353 106.842941,40.8414706 104.187647,41.3801471 Z" id="Shape" stroke="#000000" fill="#000000"></path>
            <path d="M121.256618,40.8305882 C124.243824,40.9013235 127.231029,41.0536765 130.218235,40.8577941 C132.949706,40.7925 135.904265,40.5802941 138.374559,41.9786765 C142.346618,44.2204412 142.651324,50.69 139.022059,53.3833824 C138.1025,54.0798529 136.970735,54.4008824 135.904265,54.7926471 C135.561471,54.5042647 135.218676,54.2158824 134.875882,53.9275 C136.910882,53.1983824 137.656324,50.9675 137.825,49.0086765 C138.004559,46.7669118 137.716176,44.2367647 136.083824,42.5445588 C134.609265,41.0047059 132.247794,41.0427941 130.288971,41.3257353 C128.945,41.4182353 128.259412,42.8601471 128.248529,44.0626471 C128.134265,47.5286765 128.259412,51.0001471 128.210441,54.4661765 C130.223676,54.5695588 132.247794,54.7491176 134.250147,54.4335294 C135.926029,55.3258824 137.863088,56.0223529 138.886029,57.7472059 C140.904706,60.4460294 140.556471,64.1025 142.177941,66.9427941 C143.592647,68.5697059 144.7625,65.9470588 145.6875,65.0655882 C145.099853,66.1973529 144.67,67.7045588 143.287941,68.1017647 C141.699118,68.5969118 139.620588,68.2105882 138.760882,66.6489706 C136.812941,63.4332353 137.280882,59.2652941 135.066324,56.1801471 C133.341471,54.3029412 130.479412,55.0266176 128.215882,54.7164706 C128.341029,58.2260294 127.932941,61.7791176 128.428088,65.2614706 C128.76,66.8611765 130.593676,66.9591176 131.828824,67.4923529 C128.302941,67.3345588 124.7825,67.3454412 121.256618,67.4433824 C122.154412,67.1604412 123.084853,66.9536765 123.960882,66.5945588 C124.853235,65.6858824 124.760735,64.2929412 124.815147,63.1176471 C124.798824,57.1323529 124.798824,51.1470588 124.815147,45.1672059 C124.755294,43.9919118 124.885882,42.5880882 123.960882,41.6957353 C123.084853,41.3311765 122.154412,41.1189706 121.256618,40.8305882 Z" id="Path" stroke="#000000" fill="#000000"></path>
            <path d="M148.995735,40.7870588 C152.450882,40.9883824 155.911471,41.0047059 159.366618,40.7816176 C158.528676,41.1407353 157.647206,41.4019118 156.869118,41.8807353 C155.960441,42.6914706 155.982206,44.0027941 155.955,45.1182353 C155.965882,51.1198529 155.971324,57.1214706 155.949559,63.1230882 C155.993088,64.2330882 155.900588,65.5716176 156.820147,66.3823529 C157.609118,66.8720588 158.512353,67.1277941 159.361176,67.4869118 C155.916912,67.3345588 152.467206,67.3182353 149.022941,67.4923529 C150.268971,66.9972059 152.227794,66.9808824 152.401912,65.2723529 C152.771912,60.5766176 152.445441,55.8482353 152.554265,51.1361765 C152.445441,48.3176471 152.831765,45.4501471 152.309412,42.6642647 C151.933971,41.1951471 150.1275,41.3148529 148.995735,40.7870588 Z" id="Path" stroke="#000000" fill="#000000"></path>
            <path d="M177.284412,40.7707353 C179.956029,47.8007353 182.671176,54.8144118 185.326471,61.8552941 C185.827059,63.1394118 186.300441,64.4507353 187.073088,65.6097059 C187.769559,66.7741176 189.260441,66.9264706 190.386765,67.4651471 C186.920735,67.3019118 183.454706,67.3073529 179.988676,67.4869118 C180.989853,67.1169118 182.061765,66.8938235 182.981324,66.3225 C183.198971,63.9501471 181.822353,61.8552941 181.071471,59.7005882 C177.436765,59.8257353 173.802059,59.8366176 170.172794,59.6842647 C169.557941,61.5125 168.426176,63.2482353 168.344559,65.2125 C168.551324,66.9427941 170.689706,66.8611765 171.913971,67.4869118 C168.981176,67.3291176 166.0375,67.2801471 163.104706,67.4705882 C165.117941,66.8938235 167.365147,66.1592647 168.235735,64.0317647 C170.673382,58.4491176 172.6975,52.6977941 174.906618,47.0172059 C174.999118,46.9519118 175.184118,46.8158824 175.276618,46.7451471 C173.883676,50.9892647 172.066324,55.0973529 170.542794,59.2979412 C174.008824,59.4339706 177.480294,59.4230882 180.951765,59.2979412 C179.090882,54.7817647 177.687059,50.0588235 175.483382,45.7004412 C175.973088,44.0191176 176.723971,42.4248529 177.284412,40.7707353 Z" id="Path" stroke="#000000" fill="#000000"></path>
            <path d="M62.0620588,63.6127941 C63.0632353,61.9641176 63.6127941,60.0923529 64.4616176,58.3675 C64.38,60.5167647 63.5420588,62.5082353 62.8238235,64.4997059 C62.5626471,64.2058824 62.3123529,63.9120588 62.0620588,63.6127941 Z" id="Path" stroke="#000000" fill="#000000" opacity="0.49"></path>
            <path d="M4.81544118,72.9444118 C7.80264706,72.9988235 10.7952941,73.1511765 13.7825,72.9607353 C16.5085294,72.8954412 19.4522059,72.6886765 21.9170588,74.0707353 C25.9054412,76.3070588 26.2155882,82.7983824 22.57,85.4972059 C21.6504412,86.1827941 20.5295588,86.5038235 19.4630882,86.8955882 C19.1202941,86.6072059 18.7775,86.3188235 18.4347059,86.0304412 C20.4751471,85.3013235 21.2205882,83.0595588 21.3838235,81.1007353 C21.5633824,78.8589706 21.275,76.3342647 19.6426471,74.6475 C18.1626471,73.1076471 15.8011765,73.1457353 13.8477941,73.4286765 C12.5147059,73.5211765 11.8236765,74.9413235 11.8073529,76.1329412 C11.6876471,79.6098529 11.8182353,83.0922059 11.7692647,86.5691176 C13.7770588,86.6833824 15.8066176,86.8575 17.8089706,86.5364706 C19.2345588,87.3363235 20.8995588,87.8641176 21.9497059,89.1972059 C23.6582353,91.1832353 24.1370588,93.8276471 24.6975,96.3033824 C25.0294118,97.495 25.2198529,98.9369118 26.4005882,99.6116176 C27.8316176,99.6333824 28.3104412,97.9901471 29.2354412,97.1739706 C28.6586765,98.2894118 28.2505882,99.7748529 26.8957353,100.188382 C25.2960294,100.716176 23.1630882,100.324412 22.3088235,98.7301471 C20.3663235,95.5198529 20.8451471,91.3519118 18.6197059,88.2722059 C16.8894118,86.4113235 14.0327941,87.1404412 11.7747059,86.8248529 C11.9052941,90.3344118 11.4863235,93.8820588 11.9869118,97.3644118 C12.3079412,98.9695588 14.1688235,99.0566176 15.3876471,99.5844118 C11.8672059,99.4592647 8.34132353,99.4048529 4.82088235,99.5898529 C5.70779412,99.2960294 6.62735294,99.0729412 7.48705882,98.6866176 C8.31411765,97.9901471 8.29235294,96.7713235 8.36308824,95.7864706 C8.39029412,89.9752941 8.33044118,84.1695588 8.37941176,78.3583824 C8.35764706,77.1504412 8.44470588,75.9207353 8.11279412,74.7454412 C7.74823529,73.2763235 5.93088235,73.4613235 4.81544118,72.9444118 Z" id="Path" stroke="#040707" fill="#040707"></path>
            <path d="M40.1776471,73.3307353 C44.3075,72.2261765 49.1229412,73.3198529 51.9033824,76.7042647 C56.2454412,82.0257353 56.2617647,90.465 51.9088235,95.7864706 C47.6919118,100.928382 38.7302941,100.814118 34.6657353,95.5416176 C31.2758824,91.2104412 30.7807353,85.0129412 32.8592647,80.0016176 C34.1542647,76.8511765 36.8258824,74.185 40.1776471,73.3307353 M41.6141176,73.4776471 C38.8826471,73.9945588 36.9564706,76.3886765 36.1130882,78.9133824 C34.8289706,82.6460294 34.7854412,86.7214706 35.3622059,90.5955882 C35.8845588,93.6317647 37.1197059,96.9617647 40.0252941,98.4526471 C42.8492647,99.7802941 46.6363235,99.3504412 48.7366176,96.9073529 C51.0491176,94.2194118 51.6258824,90.5139706 51.7510294,87.0860294 C51.8217647,83.2064706 51.4136765,78.9841176 48.9651471,75.8119118 C47.2566176,73.6082353 44.2530882,72.9389706 41.6141176,73.4776471 Z" id="Shape" stroke="#040707" fill="#040707"></path>
            <path d="M59.8311765,75.9316176 C61.0554412,73.7769118 63.6889706,72.7975 66.0830882,72.9226471 C68.1888235,72.9389706 70.0333824,74.0380882 71.9105882,74.8488235 C72.3023529,74.2285294 72.6941176,73.6136765 73.0858824,72.9933824 C72.8845588,75.6160294 73.0695588,78.2441176 72.9879412,80.8667647 C72.1989706,78.6358824 71.9377941,75.9370588 69.9463235,74.3754412 C67.8025,72.8954412 64.4126471,72.8138235 62.7422059,75.0501471 C61.3873529,76.7097059 61.2458824,79.3922059 62.8455882,80.9483824 C65.7620588,83.8104412 70.0116176,84.9095588 72.7539706,88.0001471 C74.7508824,90.1820588 75.5017647,93.7623529 73.7497059,96.3033824 C71.9214706,98.9151471 68.4608824,99.8020588 65.4301471,99.4864706 C63.4658824,99.3286765 61.9477941,97.9520588 60.4079412,96.8747059 C59.9617647,97.6255882 59.5264706,98.3764706 59.0966176,99.1382353 C59.3577941,96.4502941 59.2217647,93.7514706 59.1292647,91.0635294 C60.0379412,93.2508824 60.3589706,95.8027941 62.1273529,97.5222059 C63.8195588,99.2905882 66.6326471,99.6116176 68.8254412,98.6594118 C71.6167647,97.3535294 72.3948529,93.2345588 70.2836765,90.9873529 C67.5685294,87.9675 63.4005882,86.7214706 60.7833824,83.5764706 C59.0041176,81.5142647 58.5525,78.3583824 59.8311765,75.9316176 Z" id="Path" stroke="#040707" fill="#040707"></path>
            <path d="M78.2767647,72.9063235 C84.6102941,73.0369118 90.9492647,73.1783824 97.2827941,72.8791176 C96.9889706,75.5235294 97.0705882,78.1842647 97.0488235,80.8395588 C96.3632353,78.4780882 96.6897059,75.3058824 94.2520588,73.8966176 C92.2497059,73.0042647 89.9589706,73.2763235 87.8260294,73.3252941 C86.2861765,73.2436765 85.2088235,74.7291176 85.2577941,76.1655882 C85.1489706,79.2725 85.2686765,82.3848529 85.2305882,85.4917647 C86.9717647,85.4754412 88.7619118,85.7475 90.4758824,85.3176471 C92.3041176,84.8170588 92.6414706,82.6895588 93.3542647,81.2258824 C93.1420588,84.3382353 93.2182353,87.4560294 93.3379412,90.5792647 C92.6632353,89.0883824 92.4183824,87.0316176 90.6989706,86.3351471 C88.9414706,85.7583824 87.0479412,85.9760294 85.2305882,85.8780882 C85.2686765,89.355 85.1435294,92.8373529 85.2632353,96.3088235 C85.2088235,97.7452941 86.2698529,99.2416176 87.8205882,99.1545588 C90.095,99.1436765 92.4836765,99.4429412 94.6710294,98.7355882 C97.6364706,97.1413235 97.8486765,93.4413235 98.4852941,90.5194118 C98.6158824,93.5991176 98.2513235,96.6842647 98.6376471,99.7530882 C91.8579412,99.3177941 85.0727941,99.5626471 78.2876471,99.4864706 C79.18,99.2307353 80.0941176,99.0566176 80.9592647,98.7138235 C81.8679412,97.7997059 81.7754412,96.3904412 81.8298529,95.2042647 C81.8135294,89.2080882 81.8135294,83.2173529 81.8298529,77.2211765 C81.77,76.0622059 81.8842647,74.6964706 80.9919118,73.8095588 C80.1213235,73.4123529 79.1854412,73.2001471 78.2767647,72.9063235 Z" id="Path" stroke="#040707" fill="#040707"></path>
            <path d="M96.3414706,101.570441 C97.1848529,100.569265 99.0348529,100.748824 98.9532353,102.310441 C98.7954412,105.537059 97.0052941,108.361029 95.5144118,111.136029 C98.5832353,111.315588 101.6575,111.293824 104.731765,111.478824 C105.999559,111.669265 107.174853,111.043529 108.426324,110.978235 C108.295735,111.636618 108.148824,112.289559 107.985588,112.937059 C112.028382,113.317941 116.076618,112.708529 120.113971,112.469118 C120.647206,111.282941 121.240294,110.123971 121.893235,109.003088 C122.426471,109.090147 123.492941,109.264265 124.026176,109.351324 C123.362353,110.363382 122.557059,111.255735 121.833382,112.218824 C128.270294,111.843382 134.690882,111.185 141.138676,111.087059 C147.548382,111.190441 153.974412,111.163235 160.356912,111.734559 C160.171912,112.0175 159.796471,112.594265 159.606029,112.882647 C153.071176,112.431029 146.558088,111.446176 139.990588,111.511471 C133.912794,111.805294 127.769706,111.925 121.768088,112.844559 C118.416324,120.3425 115.521618,128.101618 113.617206,136.105588 C113.247206,138.570441 112.180735,141.296471 113.394118,143.679706 C115.722941,143.462059 117.377059,141.519559 119.156324,140.197353 C122.845441,136.753088 126.697794,133.450294 129.995147,129.614265 C130.501176,129.505441 131.513235,129.282353 132.019265,129.173529 C131.513235,131.246618 129.886324,133.189118 130.386912,135.414559 C130.729706,137.003382 132.683088,137.199265 133.999853,136.878235 C138.434412,135.844412 142.009265,132.819118 145.5025,130.071324 C146.906324,128.999412 148.021765,127.323529 149.898971,127.089559 C151.596618,128.166912 149.915294,130.3325 148.663824,131.018088 C148.549559,130.555588 148.326471,129.625147 148.212206,129.157206 C146.52,130.838529 144.566618,132.710294 144.664559,135.311176 C145.638529,135.311176 146.656029,135.398235 147.591912,135.022794 C152.537941,133.205441 157.331618,130.963676 162.299412,129.195294 C163.403971,127.796912 165.194118,126.425735 167.044118,127.084118 C168.126912,127.590147 167.599118,128.776324 167.278088,129.597941 C166.559853,129.233382 165.857941,128.836176 165.117941,128.520588 C164.323529,128.972206 163.697794,129.646912 163.0775,130.310735 C164.084118,131.464265 165.177794,132.547059 166.266029,133.624412 C168.866912,132.171618 171.348088,130.484853 174.030588,129.184412 C174.825,128.727353 176.696765,129.135441 175.913235,130.321618 C173.132794,131.241176 170.597206,132.710294 168.077941,134.184853 C165.999412,135.153382 166.315,137.966471 164.573824,139.294118 C163.501912,140.268088 161.336324,141.671912 160.384118,139.887206 C160.846618,137.155735 163.578088,135.904265 165.39,134.157647 C164.138529,132.884412 162.506176,131.894118 161.847794,130.152941 C157.772353,132.264118 153.4575,133.863824 149.120882,135.343824 C147.771471,135.724706 146.335,136.285147 144.931176,135.898824 C143.657941,135.387353 144.033382,133.874706 144.087794,132.819118 C141.34,134.777941 138.488824,136.682353 135.283971,137.808676 C133.608088,138.412647 131.567647,138.358235 130.125735,137.226471 C128.705588,135.985882 129.048382,133.923676 129.168088,132.258676 C125.049118,136.312353 120.8975,140.425882 116.098382,143.674265 C114.950294,144.604706 112.561618,145.225 112.131765,143.255294 C111.299265,139.261471 112.659559,135.218676 113.579118,131.355441 C109.585294,133.548235 105.156176,136.448382 100.389706,135.387353 C98.7192647,135.126176 98.5397059,133.297941 98.5505882,131.932206 C95.9442647,133.755 93.0114706,136.53 89.6052941,135.741029 C88.0545588,133.94 88.6041176,131.262941 87.6192647,129.173529 C84.3055882,131.077941 81.9114706,134.168529 79.5772059,137.117647 C78.6794118,138.238529 78.8698529,140.632647 76.9110294,140.431324 C76.4485294,140.001471 75.8391176,139.479118 75.9642647,138.766324 C76.0839706,136.208971 76.9327941,133.755 77.8795588,131.398971 C73.9945588,135.186029 70.0877941,138.989412 65.8001471,142.335735 C64.5214706,143.244412 63.2264706,144.321765 61.6322059,144.599265 C60.4025,144.729853 59.7930882,143.483824 59.6951471,142.45 C59.3251471,138.450735 60.5820588,134.560294 61.4689706,130.707941 C59.2163235,131.709118 57.0725,132.927941 54.9395588,134.157647 C52.8175,135.126176 53.1439706,137.982794 51.3701471,139.315882 C50.3036765,140.284412 48.1489706,141.661029 47.2076471,139.881765 C47.6755882,137.155735 50.4016176,135.904265 52.2135294,134.157647 C51.2830882,133.248971 50.3145588,132.383824 49.3405882,131.524118 C45.3467647,133.896471 40.9067647,136.758529 36.0532353,136.034853 C34.41,135.947794 33.8114706,134.358971 33.6754412,132.955147 C31.4935294,134.239265 28.8980882,135.300294 26.3352941,134.718088 C24.7410294,134.228382 24.2676471,132.443676 23.7235294,131.0725 C21.9605882,132.590588 19.8983824,134.712647 17.3573529,134.097794 C16.7860294,132.465441 18.4347059,131.197647 19.4739706,130.196471 C20.7798529,129.0375 22.9345588,127.726176 24.5342647,129.081029 C25.0783824,130.724265 24.7573529,133.303382 26.8522059,133.891029 C30.0026471,133.983529 33.0279412,132.400147 35.2316176,130.223676 C36.3361765,129.135441 37.8433824,127.900294 39.4376471,128.847059 C39.3451471,129.570735 39.2526471,130.299853 39.1655882,131.034412 C37.74,132.280441 35.9825,133.025882 34.3283824,133.907353 C35.2370588,135.746471 37.4842647,135.893382 39.2417647,135.392794 C42.5391176,134.533088 45.7711765,133.085735 48.3720588,130.860294 C49.3569118,129.260588 50.2438235,127.084118 52.4529412,126.991618 C53.5194118,126.545441 54.2485294,127.394265 54.8144118,128.156029 C54.5804412,128.509706 54.1125,129.211618 53.8785294,129.565294 C53.2310294,129.189853 52.5889706,128.808971 51.9414706,128.433529 C51.245,129.004853 50.5594118,129.597941 49.8955882,130.212794 C50.8586765,131.437059 51.9795588,132.530735 53.0841176,133.629853 C56.1039706,131.9975 58.8735294,129.853676 62.1436765,128.738235 C63.6563235,123.356912 65.7892647,118.182353 67.7208824,112.947941 C64.0861765,113.198235 60.4623529,113.617206 56.8276471,113.856618 C55.8863235,113.834853 54.6185294,114.030735 54.1505882,112.980588 C53.9220588,112.039265 54.6620588,111.315588 55.0864706,110.564706 C56.3161765,110.885735 56.2508824,112.0175 55.6577941,112.915294 C59.7332353,113.339706 63.8195588,112.713971 67.8841176,112.463676 C68.4173529,111.2775 69.005,110.118529 69.6633824,108.997647 C70.1966176,109.090147 71.2576471,109.264265 71.7854412,109.356765 C71.1270588,110.363382 70.3163235,111.266618 69.5926471,112.229706 C75.9425,111.827059 82.2814706,111.233971 88.6476471,111.076176 C91.0254412,107.773382 93.3107353,104.312794 96.3414706,101.570441 M90.1385294,111.0925 C91.2702941,111.119706 92.4020588,111.136029 93.5392647,111.136029 C95.1607353,108.279412 97.0052941,105.455441 97.6636765,102.185294 C94.5077941,104.535882 92.4455882,107.974706 90.1385294,111.0925 M69.8755882,112.724853 C69.1519118,112.860882 69.1464706,113.840294 68.7927941,114.362647 C65.7294118,121.909559 62.6986765,129.543529 61.0880882,137.552941 C60.7779412,139.555294 60.1413235,141.753529 61.1316176,143.668824 C62.8347059,143.6525 64.1297059,142.3575 65.4355882,141.416176 C69.0158824,138.467059 72.3132353,135.191471 75.6486765,131.964853 C77.0416176,130.256324 78.9895588,128.966765 79.8547059,126.866471 C82.3141176,121.539559 85.1380882,116.375882 88.3810294,111.478824 C82.2052941,111.745441 76.0186765,111.990294 69.8755882,112.724853 M81.5958824,126.442059 C86.1392647,122.132647 89.8229412,117.001618 93.1801471,111.745441 C92.0919118,111.652941 91.0091176,111.544118 89.9208824,111.451618 C86.6997059,116.18 83.8485294,121.180441 81.5958824,126.442059 M95.0845588,111.799853 C91.0580882,118.922353 85.4863235,124.956618 79.7622059,130.729706 C79.0766176,132.759265 78.4563235,134.810588 77.8414706,136.861912 C80.4804412,134.097794 82.6841176,130.800441 85.9705882,128.738235 C86.7758824,128.150588 88.2232353,128.02 88.6258824,129.157206 C89.2135294,131.175882 89.0448529,133.357794 89.8447059,135.338382 C90.8513235,135.175147 91.8688235,134.979265 92.7666176,134.467794 C95.7701471,132.857206 98.5941176,130.920147 101.167794,128.683824 C102.022059,127.856765 103.148382,127.802353 104.187647,128.302941 C104.095147,129.032059 104.002647,129.755735 103.910147,130.490294 C102.484559,131.741765 100.727059,132.481765 99.0675,133.363235 C99.8238235,134.810588 101.477941,135.3275 103.012353,135.028235 C107.115,134.331765 110.858529,132.247794 114.074265,129.657794 C115.701176,123.977206 117.888529,118.481618 119.956176,112.947941 C115.646765,113.165588 111.359118,113.965441 107.033382,113.791324 C106.8375,113.546471 106.440294,113.051324 106.244412,112.801029 C102.517206,112.507206 98.8117647,112.050147 95.0845588,111.799853 M100.574706,130.8875 C101.347353,131.213971 102.587941,130.337941 102.315882,129.478235 C101.608529,129.211618 100.444118,130.142059 100.574706,130.8875 M36.9238235,130.082206 C36.4286765,130.169265 35.5635294,131.159559 36.3797059,131.415294 C37.2611765,131.654706 38.3494118,129.712206 36.9238235,130.082206 M19.9147059,132.220588 C20.6873529,132.149853 21.9007353,131.404412 21.8354412,130.528382 C21.0029412,130.316176 19.8113235,131.360882 19.9147059,132.220588 M48.3883824,139.908971 C50.3635294,139.310441 51.7401471,137.716176 52.4366176,135.822647 C50.7117647,136.747647 49.1882353,138.086176 48.3883824,139.908971 M161.564853,139.908971 C163.545441,139.315882 164.911176,137.716176 165.613088,135.822647 C163.888235,136.747647 162.364706,138.086176 161.564853,139.908971 Z" id="Shape" stroke="#C4B0AA" fill="#C4B0AA"></path>
            <path d="M134.0325,125.3375 C132.051912,125.332059 132.998676,123.258971 133.444853,122.159853 C133.934559,122.578824 134.424265,123.014118 134.908529,123.454853 C134.625588,124.086029 134.364412,124.728088 134.0325,125.3375 Z" id="Path" stroke="#C4B0AA" fill="#C4B0AA"></path>
            <path d="M36.9238235,130.082206 C38.3494118,129.712206 37.2611765,131.654706 36.3797059,131.415294 C35.5635294,131.159559 36.4286765,130.169265 36.9238235,130.082206 Z" id="Path" stroke="#6C615D" fill="#6C615D" opacity="0.55"></path>
        </g>
    </g>
</svg>