<?xml version="1.0" encoding="UTF-8"?>
<svg width="349px" height="309px" viewBox="0 0 349 309" version="1.1" xmlns="http://www.w3.org/2000/svg" xmlns:xlink="http://www.w3.org/1999/xlink">
    <title>arrow-3</title>
    <g id="Page-1" stroke="none" stroke-width="1" fill="none" fill-rule="evenodd">
        <g id="arrow-3" transform="translate(174.500000, 154.363125) scale(-1, 1) translate(-174.500000, -154.363125) translate(0.000000, 0.583188)" fill="#000000" fill-rule="nonzero">
            <path d="M289.391509,62.1518374 C300.803474,118.141788 304.369712,175.558235 299.020354,232.618058 C296.167363,264.00096 286.181894,313.215057 243.743651,288.964633 C223.772713,277.909292 208.437886,259.721474 193.103058,243.316775 C174.91524,223.70246 146.385328,188.396695 116.428921,204.088146 C98.5977268,213.360368 86.1158906,230.121691 74.3473022,245.813142 C67.9280721,254.372115 58.6558509,271.133438 49.3836298,276.482796 C29.7693157,287.894761 16.5742317,259.008226 12.6513689,243.316775 C11.2248733,237.967416 -1.61358679,233.687929 0.169532669,240.820407 C4.44901937,258.651602 14.0778645,282.188779 31.909059,290.391128 C49.0270059,298.236854 61.1522182,285.398394 71.1376872,272.916558 C91.465249,247.952885 120.351784,190.893062 159.223788,222.989213 C179.907974,240.10716 196.312673,262.217841 216.640235,280.049035 C230.905191,292.530872 251.232753,308.578947 271.560314,307.509075 C293.670996,306.439203 303.656465,286.468265 308.292575,267.210575 C323.627403,203.018275 315.781677,128.483881 302.943217,64.6482047 C300.803474,59.2988463 287.965013,55.0193596 289.391509,62.1518374 Z" id="Path"></path>
            <path d="M344.311588,65.7180764 C342.171845,64.6482047 340.388726,63.578333 338.248982,62.5084613 C323.270779,44.6772667 310.432319,25.7762005 299.733602,5.44863863 C297.950482,2.2390236 291.174628,-2.75371089 288.321637,1.88239971 C275.126553,22.9232093 260.504974,42.8941473 244.456899,62.1518374 C243.743651,62.8650852 243.743651,63.578333 243.743651,64.2915808 C243.387027,67.8578197 250.876129,73.563802 255.155615,71.4240586 C267.637452,65.3614525 288.321637,50.7398729 301.516721,53.9494879 C315.068429,57.159103 331.116504,69.2843153 343.241717,75.3469214 C350.730818,79.2697843 350.730818,69.2843153 344.311588,65.7180764 Z M315.425053,51.0964968 C309.362447,47.8868818 300.090226,41.1110278 292.957748,40.7544039 C287.60839,40.7544039 282.615655,43.964019 278.336168,46.1037623 C276.196425,47.173634 274.413306,47.8868818 272.273562,48.9567534 C280.119288,38.6146606 287.60839,28.2725677 294.740867,17.2172271 C301.873345,29.3424394 309.362447,40.7544039 317.564796,51.8097446 C316.851549,51.8097446 316.138301,51.4531207 315.425053,51.0964968 Z" id="Shape"></path>
        </g>
    </g>
</svg>