<?xml version="1.0" encoding="UTF-8"?>
<svg width="295px" height="294px" viewBox="0 0 295 294" version="1.1" xmlns="http://www.w3.org/2000/svg" xmlns:xlink="http://www.w3.org/1999/xlink">
    <title>arrow-4</title>
    <g id="Page-1" stroke="none" stroke-width="1" fill="none" fill-rule="evenodd">
        <g id="arrow-4" transform="translate(147.490932, 146.970255) scale(-1, 1) rotate(-90.000000) translate(-147.490932, -146.970255) translate(1.000000, 0.000000)" fill="#C3B0A9" fill-rule="nonzero">
            <path d="M258.163662,254.310057 C263.863662,253.410057 256.663662,245.310057 252.163662,245.910057 C190.963662,254.910057 121.363662,228.210057 114.763662,160.110057 C148.363662,159.810057 182.563662,149.310057 207.463662,131.010057 C226.963662,116.610057 241.963662,91.4100567 229.963662,67.4100567 C220.363662,48.5100567 197.563662,39.5100567 177.463662,38.3100567 C123.463662,35.0100567 101.563662,100.710057 104.263662,150.510057 C94.3636617,150.210057 84.7636617,149.010057 75.4636617,146.610057 C10.6636617,131.010057 -10.6363383,55.1100567 34.0636617,7.11005675 C37.3636617,3.51005675 28.3636617,-2.48994325 24.7636617,1.11005675 C-13.0363383,41.6100567 -7.03633829,106.710057 39.1636617,138.810057 C57.7636617,151.710057 81.1636617,158.610057 105.163662,159.810057 C105.763662,166.110057 106.963662,172.110057 108.763662,177.810057 C127.063662,242.010057 198.463662,263.010057 258.163662,254.310057 Z M138.163662,66.5100567 C149.863662,50.9100567 166.663662,44.9100567 185.863662,47.6100567 C205.663662,50.3100567 224.563662,62.0100567 223.663662,84.5100567 C222.463662,115.710057 187.663662,134.010057 161.863662,142.410057 C146.863662,147.210057 130.363662,150.210057 114.163662,150.810057 C113.563662,122.610057 121.363662,89.0100567 138.163662,66.5100567 Z" id="Shape"></path>
            <path d="M289.963662,244.110057 C275.863662,233.310057 262.663662,221.010057 250.363662,208.110057 C246.163662,203.610057 238.963662,207.210057 244.063662,212.610057 C255.463662,224.610057 267.463662,235.710057 280.363662,245.910057 C262.663662,257.310057 247.363662,270.810057 233.563662,286.710057 C230.563662,290.310057 239.563662,296.610057 242.863662,292.710057 C256.963662,276.210057 273.163662,262.410057 291.763662,250.710057 C294.763662,248.910057 291.463662,245.310057 289.963662,244.110057 Z" id="Path"></path>
        </g>
    </g>
</svg>