<?xml version="1.0" encoding="UTF-8"?>
<svg width="25px" height="24px" viewBox="0 0 25 24" version="1.1" xmlns="http://www.w3.org/2000/svg" xmlns:xlink="http://www.w3.org/1999/xlink">
    <title>facebook</title>
    <g id="Page-1" stroke="none" stroke-width="1" fill="none" fill-rule="evenodd">
        <g id="facebook" transform="translate(0.500000, 0.000484)" fill="#FFFFFF" fill-rule="nonzero">
            <path d="M12.8191777,24 L1.32461576,24 C0.59283633,24 0,23.4067958 0,22.6753014 L0,1.32460548 C0,0.59292485 0.592929455,0 1.32461576,0 L22.6754774,0 C23.4069774,0 24,0.59292485 24,1.32460548 L24,22.6753014 C24,23.4068889 23.4068843,24 22.6754774,24 L16.5596527,24 L16.5596527,14.7058773 L19.6792606,14.7058773 L20.1463776,11.0837928 L16.5596527,11.0837928 L16.5596527,8.7713207 C16.5596527,7.72264365 16.8508558,7.00800485 18.3546448,7.00800485 L20.2726557,7.0071667 L20.2726557,3.76754527 C19.940943,3.72340417 18.8023918,3.62478514 17.477776,3.62478514 C14.7124171,3.62478514 12.8191777,5.31276315 12.8191777,8.41260445 L12.8191777,11.0837928 L9.6915609,11.0837928 L9.6915609,14.7058773 L12.8191777,14.7058773 L12.8191777,24 L12.8191777,24 Z" id="Path"></path>
        </g>
    </g>
</svg>