<?xml version="1.0" encoding="UTF-8"?>
<svg width="24px" height="25px" viewBox="0 0 24 25" version="1.1" xmlns="http://www.w3.org/2000/svg" xmlns:xlink="http://www.w3.org/1999/xlink">
    <title>instagram-color</title>
    <g id="Page-1" stroke="none" stroke-width="1" fill="none" fill-rule="evenodd">
        <g id="instagram-color" transform="translate(0.000969, 0.500584)" fill="#C3B0A9" fill-rule="nonzero">
            <path d="M12.9296541,7.97988907e-16 C14.6206534,0.0020074064 15.3496563,0.0106630947 16.0252757,0.0334798172 L16.159957,0.0382342014 C16.406555,0.0473048933 16.6541196,0.0583467941 16.9474423,0.0717302547 C18.2247282,0.129987904 19.0970686,0.332865525 19.8603724,0.629536531 C20.6494944,0.936163261 21.3187191,1.34649147 21.9858954,2.01362015 C22.6530241,2.68079648 23.0633523,3.35002111 23.3700266,4.13914312 C23.66665,4.90244695 23.8695276,5.77478737 23.9277853,7.05207325 C23.9411688,7.34539592 23.9522106,7.59296057 23.9612813,7.83955909 L23.9660357,7.97424081 C23.9888524,8.64986235 23.9975081,9.37887252 23.9995155,11.0698956 L24,11.7997661 L24,11.7997661 L24,11.9997816 C24,12.0676784 24,12.134338 24,12.1997942 L23.9995155,12.9296541 C23.9975081,14.6206534 23.9888524,15.3496563 23.9660357,16.0252757 L23.9612813,16.159957 C23.9522106,16.406555 23.9411688,16.6541196 23.9277853,16.9474423 C23.8695276,18.2247282 23.66665,19.0970686 23.3700266,19.8603724 C23.0633523,20.6494944 22.6530241,21.3187191 21.9858954,21.9858954 C21.3187191,22.6530241 20.6494944,23.0633523 19.8603724,23.3700266 C19.0970686,23.66665 18.2247282,23.8695276 16.9474423,23.9277853 C16.6541196,23.9411688 16.406555,23.9522106 16.159957,23.9612813 L16.0252757,23.9660357 C15.3496563,23.9888524 14.6206534,23.9975081 12.9296541,23.9995155 L12.1997942,24 L12.1997942,24 L11.9997816,24 C11.9318838,24 11.8652232,24 11.7997661,24 L11.0698956,23.9995155 C9.37887252,23.9975081 8.64986235,23.9888524 7.97424081,23.9660357 L7.83955909,23.9612813 C7.59296057,23.9522106 7.34539592,23.9411688 7.05207325,23.9277853 C5.77478737,23.8695276 4.90244695,23.66665 4.13914312,23.3700266 C3.35002111,23.0633523 2.68079648,22.6530241 2.01362015,21.9858954 C1.34649147,21.3187191 0.936163261,20.6494944 0.629536531,19.8603724 C0.332865525,19.0970686 0.129987904,18.2247282 0.0717302547,16.9474423 C0.0583467941,16.6541196 0.0473048933,16.406555 0.0382342014,16.159957 L0.0334798172,16.0252757 C0.0106630947,15.3496563 0.0020074064,14.6206534 7.97988907e-16,12.9296541 L7.97988907e-16,11.0698956 C0.0020074064,9.37887252 0.0106630947,8.64986235 0.0334798172,7.97424081 L0.0382342014,7.83955909 C0.0473048933,7.59296057 0.0583467941,7.34539592 0.0717302547,7.05207325 C0.129987904,5.77478737 0.332865525,4.90244695 0.629536531,4.13914312 C0.936163261,3.35002111 1.34649147,2.68079648 2.01362015,2.01362015 C2.68079648,1.34649147 3.35002111,0.936163261 4.13914312,0.629536531 C4.90244695,0.332865525 5.77478737,0.129987904 7.05207325,0.0717302547 C7.34539592,0.0583467941 7.59296057,0.0473048933 7.83955909,0.0382342014 L7.97424081,0.0334798172 C8.64986235,0.0106630947 9.37887252,0.0020074064 11.0698956,7.97988907e-16 L12.9296541,7.97988907e-16 Z M12.7587781,2.16200399 L11.2407739,2.16200399 C9.48526316,2.16348778 8.75192941,2.17111224 8.07583171,2.19352411 L7.94108944,2.19820621 C7.91866424,2.19902027 7.89623124,2.19985141 7.87375453,2.20069994 L7.73808525,2.20600235 C7.55573246,2.21335734 7.36601349,2.22186635 7.15063014,2.23169335 C5.98061837,2.28504459 5.34521459,2.48053878 4.92235839,2.64487966 C4.362218,2.86257178 3.96246477,3.12261144 3.54256192,3.54256192 C3.12261144,3.96246477 2.86257178,4.362218 2.64487966,4.92235839 C2.48053878,5.34521459 2.28504459,5.98061837 2.23169335,7.15063014 C2.22186635,7.36601349 2.21335734,7.55573246 2.20600235,7.73808525 L2.20069994,7.87375453 C2.19985141,7.89623124 2.19902027,7.91866424 2.19820621,7.94108944 L2.19352411,8.07583171 C2.17111224,8.75192941 2.16348778,9.48526316 2.16200399,11.2407739 L2.16200399,12.7587781 C2.16348778,14.5142634 2.17111224,15.2475895 2.19352411,15.9236848 L2.19820621,16.0584267 C2.19902027,16.0808518 2.19985141,16.1032849 2.20069994,16.1257615 L2.20600235,16.2614305 C2.21335734,16.4437831 2.22186635,16.6335021 2.23169335,16.8488854 C2.28504459,18.0188972 2.48053878,18.6543009 2.64487966,19.0771571 C2.86257178,19.6372975 3.12265908,20.0370508 3.54256192,20.4569536 C3.96246477,20.8769041 4.362218,21.1369438 4.92235839,21.3546359 C5.34521459,21.5189768 5.98061837,21.714471 7.15063014,21.7678222 C7.39290903,21.7788776 7.60270821,21.7882649 7.80608312,21.7962175 L8.07573011,21.8059914 C8.75176736,21.8284033 9.48509231,21.8360278 11.2407202,21.8375115 L12.7588328,21.8375115 C14.5144397,21.8360278 15.2477759,21.8284033 15.9238071,21.8059914 L16.1934506,21.7962175 C16.3968221,21.7882649 16.6066156,21.7788776 16.8488854,21.7678222 C18.0188972,21.714471 18.6543009,21.5189768 19.0771571,21.3546359 C19.6372975,21.1369438 20.0370508,20.8769041 20.4569536,20.4569536 C20.8769041,20.0370508 21.1369438,19.6372975 21.3546359,19.0771571 C21.5189768,18.6543009 21.714471,18.0188972 21.7678222,16.8488854 C21.7776492,16.6335021 21.7861582,16.4437831 21.7935132,16.2614305 L21.7988156,16.1257615 C21.7996641,16.1032849 21.8004953,16.0808518 21.8013093,16.0584267 L21.8059914,15.9236848 C21.8284033,15.2475895 21.8360278,14.5142634 21.8375115,12.7587781 L21.8375115,11.2407739 C21.8360278,9.48526316 21.8284033,8.75192941 21.8059914,8.07583171 L21.8013093,7.94108944 C21.8004953,7.91866424 21.7996641,7.89623124 21.7988156,7.87375453 L21.7935132,7.73808525 C21.7861582,7.55573246 21.7776492,7.36601349 21.7678222,7.15063014 C21.714471,5.98061837 21.5189768,5.34521459 21.3546359,4.92235839 C21.1369438,4.362218 20.8769041,3.96246477 20.4569536,3.54256192 C20.0370508,3.12261144 19.6372975,2.86257178 19.0771571,2.64487966 C18.6543009,2.48053878 18.0188972,2.28504459 16.8488854,2.23169335 C16.6335021,2.22186635 16.4437831,2.21335734 16.2614305,2.20600235 L16.1257615,2.20069994 C16.1032849,2.19985141 16.0808518,2.19902027 16.0584267,2.19820621 L15.9236848,2.19352411 C15.2475895,2.17111224 14.5142634,2.16348778 12.7587781,2.16200399 Z M11.9997816,5.83747508 C15.4031144,5.83747508 18.1620405,8.59640112 18.1620405,11.9997816 C18.1620405,15.4031144 15.4031144,18.1620405 11.9997816,18.1620405 C8.59640112,18.1620405 5.83747508,15.4031144 5.83747508,11.9997816 C5.83747508,8.59640112 8.59640112,5.83747508 11.9997816,5.83747508 Z M11.9997816,7.99967703 C9.79056388,7.99967703 7.99967703,9.79056388 7.99967703,11.9997816 C7.99967703,14.2089517 9.79056388,15.9998385 11.9997816,15.9998385 C14.2089517,15.9998385 15.9998385,14.2089517 15.9998385,11.9997816 C15.9998385,9.79056388 14.2089517,7.99967703 11.9997816,7.99967703 Z M18.4055031,4.15395762 C19.2008177,4.15395762 19.8455579,4.79869784 19.8455579,5.59401242 C19.8455579,6.38932697 19.2008177,7.03401958 18.4055031,7.03401958 C17.6102362,7.03401958 16.965496,6.38932697 16.965496,5.59401242 C16.965496,4.79869784 17.6102362,4.15395762 18.4055031,4.15395762 Z" id="Shape"></path>
        </g>
    </g>
</svg>