<?xml version="1.0" encoding="UTF-8"?>
<svg width="321px" height="31px" viewBox="0 0 321 31" version="1.1" xmlns="http://www.w3.org/2000/svg" xmlns:xlink="http://www.w3.org/1999/xlink">
    <title>victoriaroselogo</title>
    <g id="Page-1" stroke="none" stroke-width="1" fill="none" fill-rule="evenodd">
        <g id="victoriaroselogo" transform="translate(0.042811, 0.175717)" fill="#FFFFFF" fill-rule="nonzero">
            <path d="M234.344334,1.3319771 C238.786804,3.93775006 239.007467,11.2683119 234.814866,14.2018346 C233.610954,15.1493884 232.095517,15.532304 230.609285,15.7594573 C232.893798,16.2884 234.688309,18.0374805 235.671559,20.1143108 C236.856001,22.3728637 237.047459,24.9624114 237.848985,27.3507662 C238.128059,28.1295775 238.634287,29.1712377 239.637006,29.0252106 C240.93827,28.914879 241.22059,27.3961968 241.924765,26.5362593 C241.957215,28.0030207 241.051847,29.4600469 239.601311,29.8559427 C237.988522,30.1642222 236.009044,30.0701158 234.931688,28.6455401 C233.094991,26.2701654 233.062541,23.1127344 232.183133,20.3479542 C231.696376,18.6053638 230.901339,16.5123083 228.954311,16.012571 C227.18576,15.7302519 225.381514,15.9281998 223.596738,15.876279 C223.603228,18.8747027 223.593493,21.8731264 223.596738,24.8715501 C223.606473,26.0300319 223.72654,27.3605013 224.661113,28.1750082 C225.452905,28.7331563 226.455624,28.8207726 227.344767,29.1647476 C225.173831,29.4146163 222.989914,29.119317 220.812487,29.2004431 C219.235394,29.1809729 217.629096,29.4600469 216.081208,29.0771313 C216.89896,28.8662033 217.758898,28.8045474 218.560424,28.5189832 C219.722151,27.8829539 219.770827,26.3934772 219.800032,25.2252602 C219.813013,18.2970843 219.800032,11.3656633 219.806523,4.43748734 C219.751357,3.37635688 219.842218,2.17568939 219.141288,1.29303653 C218.479298,0.439589095 217.281876,0.556410797 216.334322,0.377933197 L216.376508,0.0307131379 C219.485263,0.105349225 222.597263,0.222170927 225.709264,0.0631636107 C228.603846,0.0566735161 231.771012,-0.284056448 234.344334,1.3319771 Z M146.134214,0.11183932 C148.538794,0.32601244 150.949864,1.5104547 152.244638,3.60675524 C153.451796,5.47265743 153.435571,7.8253167 153.156496,9.95082267 C152.565898,13.2315655 149.408467,15.4998535 146.199115,15.7594573 C148.480383,16.2981352 150.268404,18.0569508 151.258144,20.1240459 C152.426361,22.3728637 152.627554,24.9396961 153.412855,27.3150707 C153.701664,28.1133523 154.240342,29.2134233 155.275512,29.0187205 C156.537836,28.8597132 156.813665,27.3767266 157.521085,26.5362593 C157.547045,28.0711667 156.518365,29.602829 154.970478,29.8981283 C153.71789,30.0474005 152.286824,30.1155465 151.225693,29.3107747 C150.119132,28.4995129 149.548004,27.1885138 149.139128,25.9229454 C148.389522,23.4599545 148.136408,20.8476914 147.097993,18.4723168 C146.617726,17.3819809 145.793484,16.3240955 144.586327,16.0223061 C142.889167,15.6848212 141.136841,15.9833656 139.442927,15.8957493 C141.458101,15.1526335 143.739369,15.8892592 145.744808,14.9903811 C148.048792,14.1466688 148.95416,11.550631 149.197539,9.31479341 C149.408467,6.78365653 149.132638,3.92152483 147.354352,1.96476132 C145.894081,0.342237677 143.47652,0.264356542 141.474326,0.579126128 C139.923194,0.825749721 139.180078,2.46774365 139.199548,3.89556445 C139.157363,10.9957279 139.163853,18.0926463 139.186568,25.1928097 C139.219018,26.2604303 139.400741,27.4675879 140.263924,28.2009686 C141.049225,28.7526266 142.0487,28.8077924 142.937843,29.1160719 C140.903198,29.4568019 138.842593,29.122562 136.794968,29.193953 C135.088073,29.1582575 133.351973,29.4697821 131.667793,29.0836214 L132.16169,28.9713168 L132.16169,28.9713168 L133.15727,28.7756794 C133.488265,28.7069363 133.816664,28.6280168 134.137274,28.5189832 C135.292511,27.8602386 135.367147,26.3837421 135.396353,25.2057899 C135.406088,18.1607923 135.409333,11.1157946 135.396353,4.07404205 C135.360657,2.90257998 135.282776,1.43257356 134.121049,0.796544296 C133.306542,0.523960324 132.446605,0.433099001 131.622363,0.21892588 C132.894421,-0.0569031387 134.202175,0.0826338944 135.493704,0.118329414 C139.037296,0.264356542 142.587377,-0.128294179 146.134214,0.11183932 Z M266.385931,1.97774151 C269.527137,4.02536634 271.409264,7.57869311 272.100459,11.1936758 C272.973377,16.1650882 272.032313,21.7238542 268.537398,25.5335397 C264.721222,29.7326309 257.922848,30.4400512 253.094218,27.6460655 C249.647977,25.6471164 247.574392,21.8763714 246.886442,18.0374805 C246.117366,13.6307063 246.815051,8.82803631 249.417579,5.11570223 C251.283481,2.36714718 254.363031,0.536940514 257.653509,0.124819509 C260.658423,-0.232135692 263.841814,0.267601589 266.385931,1.97774151 Z M120.164101,1.25409596 C123.389678,2.81171866 125.651476,5.93020909 126.670421,9.30830331 C128.046321,13.8578596 127.676385,19.0045046 125.310746,23.1646552 C123.697957,26.0170518 120.923442,28.226929 117.704355,28.9473294 C114.043942,29.7877967 109.932467,29.1874629 106.940533,26.8283136 C104.204958,24.7092977 102.556474,21.4415351 101.93667,18.0829112 C101.086468,13.3905728 101.95614,8.20823228 104.98377,4.4277522 C106.781526,2.15621911 109.44571,0.644027074 112.301351,0.179985313 C114.94931,-0.196440172 117.743296,0.0534284689 120.164101,1.25409596 Z M64.7873689,1.1534995 C66.1957195,1.78628372 67.0816174,3.34066136 68.6976509,3.51264887 C69.0189106,2.77277809 69.3336802,2.02641722 69.6938804,1.30601672 C69.6581849,4.22655927 69.7555363,7.15683696 69.6549399,10.0741345 C68.9345394,8.38670988 68.7852672,6.49809237 67.8636738,4.88854892 C65.6927371,0.666742405 59.3584048,-1.08233808 55.6363356,2.13350378 C52.2906919,5.05080128 51.3074425,9.72042432 51.0608189,13.9617011 C51.0186333,17.4988026 51.5540661,21.1527259 53.2674511,24.2939316 C54.3869924,26.3155961 56.1750135,28.1328226 58.4952223,28.6487851 C61.8441111,29.4016361 65.7219426,28.0744117 67.5651294,25.0922133 C68.2796888,24.0641823 68.6402785,22.8901242 68.9637188,21.7011129 L69.1773189,20.9076618 C69.3206856,20.3791355 69.4706212,19.853409 69.6549399,19.3419895 C69.8561328,21.2630575 69.0967917,23.1451849 68.2368542,24.8261194 C66.8122784,27.5032834 63.8787557,29.1971981 60.8673518,29.2750792 C57.6580001,29.4892523 54.3091113,28.5384535 51.9142664,26.3415565 C48.8801472,23.6189618 47.4588165,19.4750364 47.3452398,15.4803832 C47.1829874,11.550631 48.1954422,7.45538131 50.6908836,4.34987107 C53.9067254,0.2546214 60.1339711,-1.24783549 64.7873689,1.1534995 Z M288.877354,1.30926177 C289.536098,1.66297192 290.230539,2.26006062 291.03531,2.01019198 C291.447431,1.44555375 291.700545,0.78031906 292.02505,0.163760076 C292.177567,1.80250895 292.008825,3.45099297 292.073725,5.09298689 C292.074905,5.31719016 292.082951,5.54246617 292.093162,5.76824929 L292.125588,6.44655438 C292.160028,7.23836543 292.163407,8.02945968 291.934188,8.79558584 C291.272199,6.53378789 290.960674,4.00265101 289.253779,2.22761015 C287.848674,0.890650667 285.768599,0.225415975 283.854021,0.549920703 C281.228777,1.02045256 279.564068,3.84688874 279.849632,6.38776076 C280.093011,8.11412591 281.442951,9.38618445 282.79289,10.3499635 C285.635552,12.3554027 288.961725,13.7442829 291.340345,16.353301 C293.173797,18.3230447 294.053204,21.1786863 293.449626,23.8201547 C292.949888,25.9424157 291.223523,27.5908997 289.27325,28.4313669 C287.176949,29.3075297 284.791839,29.5573983 282.581962,29.0219655 C280.878312,28.6358049 279.71334,27.2371895 278.210883,26.4583782 C277.814988,27.1820237 277.458033,27.9251396 277.071872,28.6520301 C276.91611,27.1852688 277.114058,25.7120173 277.058892,24.2420109 C277.055647,22.875846 276.701937,21.4674955 277.191939,20.1402711 C277.766312,22.1619356 278.120022,24.3134019 279.34665,26.0787077 C281.118446,28.9278592 285.54469,29.8397175 288.166689,27.6558006 C290.045571,26.0300319 290.70107,23.0445884 289.458217,20.8509365 C288.582055,19.2738435 287.095823,18.1802626 285.642042,17.177543 C283.172561,15.4803832 280.404535,14.0395822 278.538633,11.6252671 C276.526704,9.0876401 276.250875,5.11570223 278.34393,2.54886983 C280.868577,-0.43657367 285.680982,-0.731872973 288.877354,1.30926177 Z M172.94804,0.0307131379 L172.964265,0.364953008 C172.006976,0.582371175 170.842004,0.614821648 170.212465,1.48773937 C169.352527,2.59754554 169.449879,4.08702224 169.433654,5.41100153 C169.453124,11.897851 169.440144,18.3879456 169.440144,24.8747951 C169.459614,25.9489058 169.563456,27.1365931 170.316306,27.9738153 C170.968561,28.7526266 172.055652,28.7526266 172.974,28.9473294 C172.96751,29.0317007 172.95453,29.1971981 172.94804,29.2815693 C169.365508,29.1971981 165.78622,29.1842179 162.206933,29.2815693 C162.197198,29.1971981 162.180973,29.0219655 162.171238,28.9343493 C163.180448,28.7753419 164.481711,28.8726934 165.108006,27.886199 C165.675889,26.8834794 165.649928,25.6795668 165.724565,24.5632706 C165.72781,17.9563543 165.731055,11.3494381 165.724565,4.74252179 C165.649928,3.62622552 165.675889,2.41906794 165.09827,1.41959337 C164.471976,0.44607919 163.173957,0.55316575 162.177728,0.377933197 L162.206933,0.0307131379 C165.78622,0.157269982 169.368753,0.170250171 172.94804,0.0307131379 Z M42.8151538,0.0307131379 L42.8378691,0.36170796 C41.9454811,0.579126128 40.8811056,0.585616223 40.222361,1.325487 C39.4370596,2.15297406 39.329973,3.36337669 39.3072577,4.45046753 C39.3137478,11.2618218 39.3137478,18.069931 39.3072577,24.8812852 C39.326728,25.9521508 39.4305695,27.1430832 40.1866655,27.9738153 C40.83892,28.7526266 41.9260109,28.7526266 42.8378691,28.9473294 C42.8346241,29.0317007 42.824889,29.1971981 42.8183989,29.2817635 C40.3911035,29.2880594 37.9638081,29.1290521 35.5365128,29.2231585 C34.2871696,29.2393837 33.011866,29.4016361 31.7884832,29.0738863 C32.0832416,28.9783377 32.4062941,28.9253553 32.7341318,28.8761983 L33.1283293,28.8165666 C33.8497192,28.7015171 34.5487564,28.5299803 34.9751196,27.889444 C35.552738,26.8867244 35.5073073,25.6730767 35.5916786,24.5502904 C35.6079038,18.0634409 35.5916786,11.5733463 35.6014137,5.08325175 C35.5267776,3.85662388 35.5916786,2.5261545 34.9653844,1.42283842 C34.3390903,0.449324237 33.0475615,0.556410797 32.0480869,0.377933197 L32.0772924,0.0307131379 C35.6565795,0.157269982 39.2358667,0.170250171 42.8151538,0.0307131379 Z M96.9749929,0.0501834216 C96.429825,2.77602314 96.8289658,5.5602737 96.5855872,8.3055837 C95.9300877,6.36180038 96.2059167,4.12596281 95.0149844,2.36714718 C94.1615369,1.05614808 92.5325232,0.572636034 91.0495366,0.455814332 C89.9364854,0.390913386 88.6417115,0.754358681 88.0478678,1.77330353 C87.5383954,2.67218162 87.5254152,3.73980218 87.50919,4.74576684 C87.5221702,11.4597697 87.512435,18.1737725 87.5156801,24.8877753 C87.5319053,26.0624824 87.645482,27.4286473 88.6157511,28.230174 C89.4107877,28.7558717 90.4005271,28.8110375 91.286425,29.1128269 C89.9170151,29.3756757 88.5216447,29.2426288 87.1392546,29.2166684 C84.8514963,29.1387872 82.5637379,29.2848144 80.2759796,29.2816227 C80.2727346,29.193953 80.2629994,29.0252106 80.2597544,28.9408394 C81.2300235,28.7656068 82.4793667,28.8759384 83.1089059,27.9510999 C83.6930144,27.0554669 83.7124847,25.9326805 83.7416901,24.9007555 C83.7449352,18.1835076 83.7352,11.4695048 83.7449352,4.75550198 C83.7287099,3.658676 83.7352,2.49694907 83.1997672,1.5039646 C82.6156587,0.507735088 81.3111497,0.377933197 80.2727346,0.455814332 C78.789748,0.582371175 77.1607342,1.03343275 76.3007967,2.35092194 C75.2364212,4.00265101 75.1974806,6.04378575 74.9346318,7.93240326 C74.8340353,7.91942308 74.6295973,7.89670774 74.5290009,7.88372756 C74.7009884,5.27146449 74.7723794,2.6364861 74.3148278,0.0469383743 C78.0466321,0.0209779961 81.7784365,0.0988591308 85.5134859,0.154024935 C89.3329066,0.11183932 93.1523272,0.0112428542 96.9749929,0.0501834216 Z M318.429999,0.043693327 C318.027614,2.87012951 318.063309,5.72252607 318.215826,8.56518748 C317.788175,8.05826474 317.699814,7.42796398 317.642106,6.79153263 L317.604788,6.36762349 C317.585012,6.15650147 317.561022,5.94759327 317.521386,5.7452414 C317.294233,4.06430691 316.781515,2.19840472 315.249853,1.24760587 C313.387196,0.131309604 311.138378,0.472039568 309.074528,0.407138622 C307.880351,0.368198055 306.497961,0.832239816 305.991733,2.00045684 C305.508221,3.07132244 305.579612,4.27523498 305.566632,5.42073667 C305.579612,8.36399455 305.566632,11.3040074 305.573122,14.2472653 C306.008983,14.2260871 306.452467,14.230222 306.898911,14.2405944 L307.570213,14.2584467 C309.026985,14.2969298 310.490394,14.3005524 311.800368,13.6144811 C313.33852,12.7123579 313.481302,10.7718196 314.049186,9.2596276 C314.386671,10.9892378 314.01349,12.7480534 314.042696,14.4906438 C314.01349,16.1813134 314.393161,17.8914534 314.042696,19.5691428 C313.484547,18.0894013 313.31905,16.2105189 311.816593,15.3311111 C309.91175,14.2829608 307.643462,14.7729629 305.569877,14.6691214 C305.592592,18.2646338 305.540672,21.8601462 305.589347,25.4524135 C305.566632,26.8120883 306.163721,28.3891813 307.636972,28.713686 C308.592786,28.9101589 309.567909,28.9241582 310.546017,28.9078769 L311.524514,28.8871388 C312.013656,28.8773598 312.502183,28.8726934 312.988055,28.8921636 C315.149257,28.9992502 317.193636,27.6460655 318.082779,25.6990371 C319.179605,23.8071746 319.108214,21.5518667 319.828615,19.5399374 C320.081729,21.3149782 319.728018,23.0900191 319.731263,24.868305 C319.705303,26.3415565 319.887026,27.8083179 319.984377,29.2750792 C312.747922,29.1290521 305.511466,29.2296486 298.271766,29.2750792 L298.268521,28.9375943 C298.442608,28.9083889 298.625285,28.8878743 298.811648,28.8687568 L299.187834,28.8302231 C299.944223,28.7482363 300.707269,28.610799 301.163103,27.9510999 C301.812112,26.9516254 301.769927,25.689302 301.802377,24.5405552 C301.782907,17.732446 301.812112,10.9210918 301.789397,4.10973757 C301.727741,2.95125569 301.659595,1.5104547 300.569259,0.819259627 C299.842369,0.514225183 299.040842,0.48177471 298.271766,0.381178244 L298.271766,0.043693327 C304.989014,0.131309604 311.709507,0.179985313 318.429999,0.043693327 Z M20.1160481,0.0307131379 C22.6601652,0.202700644 25.2107723,0.0242230433 27.7548894,0.141044745 C27.5295904,0.237700797 27.295798,0.322287259 27.0594831,0.404095799 L26.5852592,0.566762072 C25.8741858,0.8134649 25.1762357,1.09091644 24.6526242,1.64999173 C23.8932831,2.38012737 23.4292414,3.35039651 23.062551,4.32391069 C20.3561816,11.6934131 17.6270968,19.0564253 14.9109923,26.4259277 C14.5572821,27.3734815 14.2587377,28.3469957 13.8076762,29.2523639 C13.6356887,29.2556089 13.2982038,29.258854 13.1294613,29.262099 C12.6719096,28.3534858 12.3798554,27.3799716 12.0261452,26.4324178 C9.30355055,19.03371 6.57446579,11.6350022 3.85187112,4.23629441 C3.40729964,3.14595853 3.02113902,1.96800636 2.16444654,1.12753912 C1.58682812,0.566145939 0.730135638,0.556410797 8.8817842e-15,0.342237677 L0.0162252364,0.0372032325 C2.22934748,0.0404482797 4.43597963,0.199455596 6.64910188,0.134554651 C8.11586325,0.105349225 9.59235976,-0.0309427604 11.0558761,0.167005124 C10.7978948,0.283826826 10.510911,0.378338828 10.2185525,0.473662092 L9.86665468,0.589919155 C9.1051727,0.849065386 8.37124847,1.17621483 8.08016773,1.97774151 C7.58043045,2.96748093 8.04771725,4.05457176 8.37546703,5.01835081 C10.7346164,11.2910272 12.9769441,17.6026442 15.3652989,23.8623404 C17.6660374,17.4339017 20.0835976,11.0476487 22.4362569,4.64192532 C22.783477,3.63271562 23.0301005,2.48072383 22.6309597,1.45528889 C22.1636729,0.520715277 20.9630054,0.595351365 20.0998229,0.36170796 L20.1160481,0.0307131379 Z M192.155475,0.066408658 C194.94946,7.41644075 197.730466,14.7729629 200.521207,22.1294851 C201.296773,24.0083675 201.767305,26.104668 203.13347,27.6720259 C203.941486,28.6293148 205.258976,28.7331563 206.365537,29.125807 C204.600231,29.4113712 202.815455,29.1582575 201.040414,29.190708 C199.047955,29.1452773 197.049006,29.398391 195.063037,29.1485224 C196.182578,28.6747455 198.308084,28.8726934 198.278879,27.1690435 C198.051726,24.936451 196.873773,22.9504821 196.182578,20.8444464 C192.285277,20.8412013 188.387975,20.8282212 184.490673,20.8509365 C184.323649,21.4407716 184.094867,22.0179745 183.856261,22.593196 L183.568541,23.2831922 C183.092226,24.4338729 182.659703,25.5936685 182.686427,26.8477839 C182.916825,28.6098445 185.000145,28.6974608 186.330615,29.1160719 C184.863853,29.3789207 183.377622,29.193953 181.901125,29.193953 C181.493061,29.1850292 181.08459,29.1903024 180.676019,29.2000375 L179.450303,29.2328936 C178.633363,29.2507414 177.817233,29.2474963 177.004349,29.1452773 C178.07846,28.7753419 179.266147,28.6812356 180.252641,28.0809018 C181.586356,27.1852688 182.365167,25.6990371 182.923315,24.2355208 C185.33763,17.7843668 187.794131,11.346193 190.234407,4.90477415 C190.857456,3.28549556 191.399379,1.63052145 192.155475,0.066408658 Z M257.296554,0.747868587 C255.297605,1.24111577 253.632895,2.66569153 252.613951,4.42126211 C251.286726,6.67656997 250.735068,9.29856817 250.514405,11.8816258 C250.274271,15.7205167 250.368378,19.7119249 251.854609,23.3236625 C252.649646,25.280426 254.006076,27.1041426 255.933634,28.0646766 C258.750335,29.4081262 262.417238,29.0706412 264.743937,26.9159299 C266.486528,25.3096314 267.427591,23.0316083 267.966269,20.7665653 C268.845677,16.8854887 268.855412,12.8194445 268.063621,8.92214268 C267.586599,6.66034473 266.713681,4.39530173 265.097647,2.698142 C263.121414,0.66025231 259.993188,0.0307131379 257.296554,0.747868587 Z M113.771358,0.491509852 C111.691282,0.669987452 109.676108,1.66621697 108.400804,3.33741632 C106.048145,6.403986 105.528938,10.4343347 105.434686,14.1888544 C105.425096,18.2548987 105.898873,22.6551828 108.439745,25.9910914 C111.217505,29.6839552 117.402566,29.8267373 120.384764,26.3155961 C122.899676,23.3269076 123.51948,19.2511282 123.652527,15.467403 C123.694712,11.4370543 123.311797,7.10816126 120.965627,3.69437152 C119.41125,1.37416271 116.506932,0.21892588 113.771358,0.491509852 Z M190.386924,5.55702866 C188.615128,10.5414213 186.629159,15.4479328 184.808688,20.4128551 C188.563207,20.4290803 192.320972,20.4225902 196.075492,20.4161002 C194.160914,15.4706481 192.350178,10.4862555 190.386924,5.55702866 Z M225.845556,0.58886127 C224.365814,0.8517101 223.616208,2.41906794 223.622698,3.79821303 C223.564287,7.708495 223.609718,11.622022 223.606473,15.532304 C225.907211,15.4771382 228.340997,15.8113781 230.508688,14.844354 C232.585519,13.8546146 233.387045,11.4273192 233.610954,9.29532312 C233.808902,6.77716643 233.565523,3.91178968 231.771012,1.97125141 C230.307496,0.32601244 227.86073,0.261111495 225.845556,0.58886127 Z"></path>
        </g>
    </g>
</svg>